<?xml version="1.0" encoding="UTF-8"?>
<svg width="180px" height="91px" viewBox="0 0 180 91" version="1.1" xmlns="http://www.w3.org/2000/svg" xmlns:xlink="http://www.w3.org/1999/xlink">
    <title>IDL Logotype</title>
    <g id="Page-1" stroke="none" stroke-width="1" fill="none" fill-rule="evenodd">
        <g id="02b-IDL-About-Us—Pernod-Ricard-Desktop" transform="translate(-135.000000, -1344.000000)">
            <g id="Footer" transform="translate(0.000000, 1296.000000)">
                <g id="IDL-Logotype" transform="translate(135.000000, 48.000000)">
                    <path d="M39.99632,80.5061075 C43.090775,80.5061075 45.06502,83.0750375 44.58727,86.3023525 L36.80313,86.3023525 C36.954645,88.1774075 38.560795,89.2543925 39.902135,89.2543925 C41.22482,89.2543925 42.37415,88.6592525 42.792295,87.5827225 L44.39799,87.5827225 C43.926155,89.4154625 42.09023,90.5452275 39.883025,90.5452275 C37.465155,90.5452275 35.38717,89.0109675 35.38717,85.5670725 C35.38717,82.5476925 37.182145,80.5061075 39.99632,80.5061075 Z M130.019526,80.531724 C131.243931,80.531724 132.613936,81.062709 133.278236,82.016844 L133.340571,82.016844 L133.340571,80.739659 L136.242561,80.739659 L136.242561,81.939039 L134.721951,81.939039 L134.721951,89.093004 L136.242561,89.093004 L136.242561,90.328784 L133.340571,90.328784 L133.340571,89.041134 L133.278236,89.041134 C132.613936,90.016199 131.243931,90.536719 130.019526,90.536719 C127.050651,90.536719 125.513661,88.153429 125.513661,85.513519 C125.513661,82.835844 127.121176,80.531724 130.019526,80.531724 Z M119.119592,80.5264005 C120.684792,80.5264005 121.767692,81.2671405 122.307322,82.0351805 L122.348727,82.0351805 L122.348727,80.7393405 L123.703717,80.7393405 L123.703717,84.1941555 L122.144432,84.1941555 C121.831847,82.6840105 120.561487,81.7935755 119.177377,81.7935755 C116.987917,81.7935755 115.878627,83.5207555 115.878627,85.5132005 C115.878627,87.7131255 117.205862,89.2432905 119.245172,89.2432905 C120.684792,89.2432905 121.863697,88.3137255 122.366017,86.7972105 L123.806547,86.7972105 C123.342447,89.0344455 121.420527,90.5364005 119.573227,90.5364005 C116.501522,90.5364005 114.475862,88.3569505 114.475862,85.5341305 C114.475862,82.7108555 116.047432,80.5264005 119.119592,80.5264005 Z M72.0634005,80.532179 C75.0168055,80.532179 76.7394355,82.815369 76.7394355,85.534449 C76.7394355,88.253074 75.0168055,90.536719 72.0634005,90.536719 C69.1104505,90.536719 67.3878205,88.253074 67.3878205,85.534449 C67.3878205,82.815369 69.1104505,80.532179 72.0634005,80.532179 Z M87.7090305,76.864879 L87.7090305,89.093004 L89.2032505,89.093004 L89.2032505,90.328784 L86.2853355,90.328784 L86.2853355,88.979254 L86.2434755,88.979254 C85.5587005,89.933844 84.1477455,90.531259 82.9438155,90.531259 C79.9758505,90.531259 78.4434105,88.335884 78.4434105,85.534449 C78.4434105,82.731649 79.9758505,80.511249 82.9438155,80.511249 C84.1477455,80.511249 85.5846355,81.134599 86.2280055,82.088734 L86.2489355,82.088734 L86.2489355,78.116129 L84.7215005,78.116129 L84.7215005,76.864879 L87.7090305,76.864879 Z M155.034243,76.828752 L155.034243,89.077352 L156.528463,89.077352 L156.528463,90.328602 L153.600083,90.328602 L153.600083,89.061882 L153.559133,89.061882 C152.873903,90.016472 151.472958,90.531077 150.269028,90.531077 C147.301063,90.531077 145.752698,88.232872 145.752698,85.430527 C145.752698,82.628637 147.643678,80.506062 150.217158,80.506062 C151.766888,80.506062 153.027693,81.138967 153.496798,82.192292 L153.517728,82.192292 L153.517728,78.147342 L151.995298,78.147342 L151.995298,76.828752 L155.034243,76.828752 Z M60.6342555,80.5321335 C63.1221955,80.5321335 64.6018555,82.3380285 64.6018555,85.0157035 L64.6018555,89.0929585 L66.0756005,89.0929585 L66.0756005,90.3287385 L61.6052255,90.3287385 L61.6052255,89.0929585 L63.1417605,89.0929585 L63.1417605,85.3524035 C63.1417605,83.0205285 62.0561305,81.8024935 60.3344105,81.8024935 C58.6577355,81.8024935 57.5434405,83.1488385 57.5434405,84.9970485 L57.5434405,89.0929585 L59.1209255,89.0929585 L59.1209255,90.3287385 L54.5936755,90.3287385 L54.5936755,89.0929585 L56.1716155,89.0929585 L56.1716155,81.9289835 L54.5936755,81.9289835 L54.5936755,80.7396135 L57.4815605,80.7396135 L57.481,82.1911071 L57.5504943,82.048084 C58.021823,81.1485004 59.14818,80.5321335 60.6342555,80.5321335 Z M53.297153,80.75886 L53.297153,82.17755 C51.401623,81.474575 49.559328,82.4915 49.559328,84.845215 L49.559328,89.0799 L51.035803,89.0799 L51.035803,90.328875 L46.610928,90.328875 L46.610928,89.0799 L48.156563,89.0799 L48.156563,81.98463 L46.618663,81.98463 L46.618663,80.739295 L49.414638,80.739295 L49.414638,82.09201 L49.454678,82.09201 C50.118978,80.60325 52.040443,80.226965 53.297153,80.75886 Z M144.996078,80.75886 L144.996078,82.17755 C143.100548,81.474575 141.258253,82.4915 141.258253,84.845215 L141.258253,89.0799 L142.734728,89.0799 L142.734728,90.328875 L138.310308,90.328875 L138.310308,89.0799 L139.855488,89.0799 L139.855488,81.98463 L138.317588,81.98463 L138.317588,80.739295 L141.113563,80.739295 L141.113563,82.09201 L141.154058,82.09201 C141.817903,80.60325 143.739368,80.226965 144.996078,80.75886 Z M101.841057,76.879621 C105.008767,76.916931 106.317802,78.714636 106.317802,80.763956 C106.317802,83.432986 104.238907,84.323876 103.006767,84.514066 L105.195772,89.043591 L106.917492,89.043591 L106.917492,90.328511 L104.125612,90.328511 L101.350112,84.570941 L98.7461475,84.570941 L98.7461475,89.043591 L100.221257,89.043591 L100.221257,90.328511 L95.5980025,90.328511 L95.5980025,89.043591 L97.2846875,89.043591 L97.2846875,78.200941 L95.6239375,78.200941 L95.6239375,76.879621 L101.841057,76.879621 Z M29.352869,76.926577 C31.694299,76.926577 34.364694,77.726467 34.364694,81.047512 C34.364694,84.153342 31.767554,85.279467 29.172689,85.279467 L26.803959,85.279467 L26.803959,89.048232 L28.481544,89.048232 L28.481544,90.328602 L23.656269,90.328602 L23.656269,89.048232 L25.312014,89.048232 L25.312014,78.206947 L23.656269,78.206947 L23.656269,76.926577 L29.352869,76.926577 Z M111.682935,80.716545 L111.682935,89.06807 L113.198995,89.06807 L113.198995,90.31659 L108.744545,90.31659 L108.744545,89.06807 L110.27289,89.06807 L110.27289,81.957785 L108.73863,81.957785 L108.73863,80.716545 L111.682935,80.716545 Z M83.1017005,81.802539 C80.8417155,81.802539 79.8516355,83.654844 79.8516355,85.528079 C79.8516355,87.401314 80.8417155,89.253164 83.1017005,89.253164 C84.7160405,89.253164 86.3085405,87.896809 86.3085405,85.528079 C86.3085405,83.159349 84.7160405,81.802539 83.1017005,81.802539 Z M72.0201755,81.802539 C70.0454755,81.802539 68.7423555,83.309954 68.7423555,85.528079 C68.7423555,87.746204 70.0454755,89.253164 72.0201755,89.253164 C73.9953305,89.253164 75.2984505,87.746204 75.2984505,85.528079 C75.2984505,83.309954 73.9953305,81.802539 72.0201755,81.802539 Z M130.185146,81.793439 C128.006151,81.793439 126.932351,83.728099 126.932351,85.513519 C126.932351,87.360819 128.006151,89.243154 130.185146,89.243154 C131.742156,89.243154 133.365596,88.086999 133.365596,85.513519 C133.365596,82.901819 131.742156,81.793439 130.185146,81.793439 Z M150.404163,81.793257 C148.145543,81.793257 147.125433,83.727917 147.125433,85.534267 C147.125433,87.528077 148.224713,89.242972 150.404163,89.242972 C151.960718,89.242972 153.666968,88.029942 153.666968,85.534267 C153.666968,83.044052 151.960718,81.793257 150.404163,81.793257 Z M39.977665,81.8233325 C37.952915,81.8233325 36.870925,83.4226575 36.80313,85.0219825 L43.199065,85.0219825 C43.266405,83.4226575 42.02289,81.8233325 39.977665,81.8233325 Z M28.792764,78.206947 L26.803959,78.206947 L26.803959,83.998642 L29.165864,83.998642 C32.320834,83.943132 32.862284,82.458012 32.862284,81.028857 C32.862284,79.042327 31.947279,78.206947 28.792764,78.206947 Z M101.457037,78.200941 L98.7461475,78.200941 L98.7461475,83.244161 L101.457037,83.244161 C103.679257,83.244161 104.809932,82.626726 104.809932,80.745301 C104.809932,78.919841 103.489522,78.200941 101.457037,78.200941 Z M111.716605,76.897275 L111.716605,78.71864 L110.1009,78.71864 L110.1009,76.897275 L111.716605,76.897275 Z M174.0375,54.0383935 C175.78015,54.0383935 177.386755,54.9101735 178.032855,56.0649635 L178.032855,54.3669035 L179.520705,54.3669035 L179.520705,58.4682735 L177.517795,58.4682735 C177.429525,57.6392635 176.476755,55.8279085 174.052515,55.8279085 C172.388125,55.8279085 170.863875,56.4630885 170.863875,57.9300085 C170.863875,61.5504435 179.724545,58.7066935 179.724545,64.0988985 C179.724545,67.0045285 177.29348,68.1870735 174.69816,68.1870735 C173.090645,68.1870735 171.55593,67.6060385 170.45574,66.3652535 L170.45574,67.8226185 L168.83412,67.8226185 L168.83412,63.7458185 L170.72419,63.7458185 C171.3166,65.6358885 172.98645,66.4239485 174.538,66.4239485 C175.665945,66.4239485 177.777145,66.0217285 177.777145,64.2444985 C177.777145,62.4598188 175.774553,62.2394399 173.670135,61.878295 L173.218322,61.7981308 C171.033723,61.3942503 168.885535,60.7087243 168.885535,57.8471985 C168.885535,55.1390385 171.640105,54.0383935 174.0375,54.0383935 Z M99.3739565,54.0383935 C101.116606,54.0383935 102.723211,54.9101735 103.369311,56.0649635 L103.369311,54.3669035 L104.857162,54.3669035 L104.857162,58.4682735 L102.854252,58.4682735 C102.765981,57.6392635 101.813211,55.8279085 99.3889715,55.8279085 C97.7245815,55.8279085 96.2003315,56.4630885 96.2003315,57.9300085 C96.2003315,61.5504435 105.061002,58.7066935 105.061002,64.0988985 C105.061002,67.0045285 102.629936,68.1870735 100.034616,68.1870735 C98.4271015,68.1870735 96.8923865,67.6060385 95.7921965,66.3652535 L95.7921965,67.8226185 L94.1705765,67.8226185 L94.1705765,63.7458185 L96.0606465,63.7458185 C96.6530565,65.6358885 98.3229065,66.4239485 99.8744565,66.4239485 C101.002401,66.4239485 103.113602,66.0217285 103.113602,64.2444985 C103.113601,62.4598188 101.11101,62.2394399 99.0065911,61.878295 L98.5547784,61.7981308 C96.37018,61.3942503 94.2219915,60.7087243 94.2219915,57.8471985 C94.2219915,55.1390385 96.9765615,54.0383935 99.3739565,54.0383935 Z M34.335847,54.0383935 C36.078497,54.0383935 37.685102,54.9101735 38.331202,56.0649635 L38.331202,54.3669035 L39.819052,54.3669035 L39.819052,58.4682735 L37.816142,58.4682735 C37.727872,57.6392635 36.775102,55.8279085 34.350862,55.8279085 C32.686472,55.8279085 31.162222,56.4630885 31.162222,57.9300085 C31.162222,61.5504435 40.022892,58.7066935 40.022892,64.0988985 C40.022892,67.0045285 37.591827,68.1870735 34.996507,68.1870735 C33.388992,68.1870735 31.854277,67.6060385 30.754087,66.3652535 L30.754087,67.8226185 L29.132467,67.8226185 L29.132467,63.7458185 L31.022082,63.7458185 C31.614947,65.6358885 33.284797,66.4239485 34.836347,66.4239485 C35.964292,66.4239485 38.075037,66.0217285 38.075037,64.2444985 C38.075037,62.4598188 36.0725476,62.2394399 33.9682368,61.878295 L33.5164472,61.7981308 C31.3319605,61.3942503 29.183882,60.7087243 29.183882,57.8471985 C29.183882,55.1390385 31.937997,54.0383935 34.335847,54.0383935 Z M148.518507,54.0295665 C152.856931,54.0295665 155.624696,57.6304365 154.954481,62.1563215 L144.041307,62.1563215 C144.253337,64.7848565 146.505132,66.2945465 148.386102,66.2945465 C150.240227,66.2945465 151.852291,65.4605315 152.438331,63.9512965 L154.689671,63.9512965 C154.027646,66.5211365 151.454166,68.1049915 148.359257,68.1049915 C144.969052,68.1049915 142.055687,65.9532965 142.055687,61.1257465 C142.055687,56.8910615 144.572292,54.0295665 148.518507,54.0295665 Z M111.183254,50.638042 L111.183254,54.366767 L115.006619,54.366767 L115.006619,56.154007 L111.183254,56.154007 L111.183254,64.042797 C111.183254,65.847782 112.004529,66.270022 112.991424,66.270022 C113.386364,66.270022 114.333674,66.038427 114.735894,65.870987 L114.735894,67.817477 C114.059309,68.014492 112.667464,68.104582 111.962214,68.104582 C110.598579,68.104582 109.169879,67.162732 109.169879,64.369942 L109.169879,56.154007 L106.940834,56.154007 L106.940834,54.366767 L109.169879,54.366767 L109.169879,51.251837 L111.183254,50.638042 Z M75.2983595,49.003591 C80.4321245,49.003591 83.4305745,52.758251 83.4305745,58.387056 C83.4305745,63.261016 81.1564845,67.822391 74.8465445,67.822391 L66.8635695,67.822391 L66.8635695,65.974181 L69.2382145,65.974181 L69.2382145,50.852256 L66.8635695,50.852256 L66.8635695,49.003591 L75.2983595,49.003591 Z M121.461795,54.362035 L121.461795,66.071915 L123.587555,66.071915 L123.587555,67.822755 L117.342225,67.822755 L117.342225,66.071915 L119.485275,66.071915 L119.485275,56.10241 L117.334035,56.10241 L117.334035,54.362035 L121.461795,54.362035 Z M137.903129,49.0074585 L137.903129,66.0877035 L140.075299,66.0877035 L140.075299,67.8226185 L133.718494,67.8226185 L133.718494,66.0877035 L135.894759,66.0877035 L135.894759,50.7428285 L133.774914,50.7428285 L133.774914,49.0074585 L137.903129,49.0074585 Z M89.933025,54.362035 L89.933025,66.071915 L92.058785,66.071915 L92.058785,67.822755 L85.813455,67.822755 L85.813455,66.071915 L87.95605,66.071915 L87.95605,56.10241 L85.805265,56.10241 L85.805265,54.362035 L89.933025,54.362035 Z M24.885315,54.362035 L24.885315,66.071915 L27.011075,66.071915 L27.011075,67.822755 L20.765745,67.822755 L20.765745,66.071915 L22.90834,66.071915 L22.90834,56.10241 L20.757555,56.10241 L20.757555,54.362035 L24.885315,54.362035 Z M18.986149,54.404714 L18.986149,56.393974 C16.328494,55.407989 13.745459,56.833504 13.745459,60.134074 L13.745459,66.071824 L15.815254,66.071824 L15.815254,67.822664 L9.611784,67.822664 L9.611784,66.071824 L11.778949,66.071824 L11.778949,56.123249 L9.622249,56.123249 L9.622249,54.377414 L13.542529,54.377414 L13.542529,56.273399 L13.598949,56.273399 C14.529879,54.185859 17.224389,53.658969 18.986149,54.404714 Z M129.883754,49.0074585 L129.883754,66.0877035 L132.055924,66.0877035 L132.055924,67.8226185 L125.699119,67.8226185 L125.699119,66.0877035 L127.875384,66.0877035 L127.875384,50.7428285 L125.755539,50.7428285 L125.755539,49.0074585 L129.883754,49.0074585 Z M167.088649,54.404714 L167.088649,56.393974 C164.430994,55.407989 161.847959,56.833504 161.847959,60.134074 L161.847959,66.071824 L163.917754,66.071824 L163.917754,67.822664 L157.714284,67.822664 L157.714284,66.071824 L159.881449,66.071824 L159.881449,56.123249 L157.724749,56.123249 L157.724749,54.377414 L161.645029,54.377414 L161.645029,56.273399 L161.701449,56.273399 C162.632379,54.185859 165.326889,53.658969 167.088649,54.404714 Z M46.230002,48.9519485 L46.230002,56.0381185 C47.258757,54.7682135 48.746607,54.0848035 50.354577,54.0848035 C53.217437,54.0848035 56.020237,55.5448985 56.020237,60.6445385 L56.020237,66.0717785 L58.079567,66.0717785 L58.079567,67.8226185 L51.871092,67.8226185 L51.871092,66.0717785 L54.043262,66.0717785 L54.043262,60.8916035 C54.043262,56.3416035 51.133992,55.8866035 50.062012,55.8866035 C47.884382,55.8866035 46.230002,57.4791035 46.230002,60.7018685 L46.230002,66.0717785 L48.348027,66.0717785 L48.348027,67.8226185 L42.044912,67.8226185 L42.044912,66.0717785 L44.217082,66.0717785 L44.217082,50.7956085 L42.044912,50.7956085 L42.044912,48.9519485 L46.230002,48.9519485 Z M6.7522,48.945533 L6.7522,50.866543 L4.39621,50.866543 L4.39621,66.015313 L6.696235,66.015313 L6.696235,67.822573 L0.04186,67.822573 L0.04186,66.015313 L2.34598,66.015313 L2.356445,50.866543 L0,50.866543 L0,48.945533 L6.7522,48.945533 Z M74.9762195,50.823591 L71.2775245,50.823591 L71.2775245,65.974181 L74.4238495,65.974181 C79.5262195,65.974181 81.2797895,62.928866 81.2797895,58.387056 C81.2797895,53.573611 79.0143445,50.823591 74.9762195,50.823591 Z M148.492117,55.8759565 C145.652917,55.8759565 144.135947,58.1181965 144.041307,60.3604365 L153.008446,60.3604365 C153.103541,58.1181965 151.359071,55.8759565 148.492117,55.8759565 Z M121.50866,49.007595 L121.50866,51.561055 L119.243215,51.561055 L119.243215,49.007595 L121.50866,49.007595 Z M89.980345,49.007595 L89.980345,51.561055 L87.7149,51.561055 L87.7149,49.007595 L89.980345,49.007595 Z M24.93218,49.007595 L24.93218,51.561055 L22.66719,51.561055 L22.66719,49.007595 L24.93218,49.007595 Z M89.918829,32.4112425 C89.923834,32.4112425 89.929294,32.4107875 89.934299,32.4107875 L89.934299,32.4116975 C94.124849,32.4198875 99.932469,34.0729025 104.382369,39.1570725 C102.757564,40.5370875 100.933469,41.6882375 98.958314,42.5622925 C97.645184,39.8523125 94.229044,37.0495125 89.918829,37.0426875 C85.614529,37.0495125 82.202029,39.8441225 80.884804,42.5504625 C78.911924,41.6745875 77.090104,40.5225275 75.468029,39.1416025 C79.916109,34.0692625 85.716449,32.4198875 89.903359,32.4116975 L89.903359,32.4107875 C89.908364,32.4107875 89.913824,32.4112425 89.918829,32.4112425 Z M110.084702,31.7746065 C109.166967,33.6883365 107.983057,35.4496415 106.583932,37.0139315 C103.933102,34.2352465 97.464367,31.3778465 92.804257,32.0608015 C94.394027,31.4993315 95.768582,30.4860465 96.776407,29.1742815 C100.704877,28.7265615 106.361437,29.2707415 110.084702,31.7746065 Z M83.096559,29.178513 C84.109844,30.494828 85.492134,31.509933 87.091459,32.068218 C82.436809,31.354778 75.941684,34.211723 73.269924,36.996778 C71.873529,35.432488 70.692349,33.671638 69.776889,31.759273 C73.511529,29.261323 79.174914,28.723968 83.096559,29.178513 Z M112.255826,22.640163 C112.20805,24.779573 111.865436,26.846638 111.256646,28.797678 C107.87372,26.887588 102.33455,26.499018 97.4756055,28.116543 C98.0252455,27.130103 98.3824205,26.022633 98.5075455,24.845548 C101.024605,23.400923 106.694816,21.164143 112.255826,22.640163 Z M81.363191,24.8649765 C81.491046,26.0397865 81.848676,27.1454365 82.399681,28.1300565 C77.543921,26.5020665 72.001111,26.8806265 68.606811,28.7825265 C67.999841,26.8337615 67.659501,24.7694265 67.612181,22.6327465 C73.188661,21.1662815 78.867971,23.4235365 81.363191,24.8649765 Z" id="Dark-Blue-Parts" fill="#004178"></path>
                    <path d="M99.1709355,1.7978415 C96.1656605,6.6959165 94.2259955,12.7974665 93.9639155,16.2977815 C92.8937555,15.7317615 91.6902805,15.3909665 90.4130955,15.3208965 C90.3275555,9.2043315 92.0055955,3.3557615 93.2759555,0.0470015 C95.3489355,0.3582215 97.3254555,0.9583665 99.1709355,1.7978415 Z M112.014903,18.756829 C108.228393,18.506124 102.644178,20.011264 98.553728,23.758644 C98.530978,22.577919 98.273448,21.456799 97.822088,20.437599 C99.611603,17.486014 105.415128,13.319124 110.264518,12.887329 C111.101263,14.725074 111.702318,16.692949 112.014903,18.756829 Z M81.313505,23.7853525 C77.231245,20.0279625 71.649305,18.5141775 67.853695,18.7548725 C68.166735,16.6928125 68.766425,14.7263025 69.602715,12.8899225 C74.462115,13.3376425 80.267005,17.5195475 82.032405,20.4670375 C81.58605,21.4857825 81.332615,22.6064475 81.313505,23.7853525 Z M71.885814,8.980972 C73.108399,7.305662 74.558939,5.809167 76.191024,4.533347 C80.914834,7.417592 84.037044,13.396747 85.042594,16.820622 C84.014294,17.530422 83.153434,18.459532 82.514614,19.537427 C80.519894,14.324492 75.464844,10.194912 71.885814,8.980972 Z M103.663605,4.522063 C105.298876,5.799248 106.752146,7.296653 107.976551,8.972873 C104.403891,10.173163 99.3429255,14.295463 97.3350105,19.506578 C96.6925505,18.432778 95.8303255,17.506853 94.8006605,16.801603 C95.8130355,13.370448 98.9384305,7.397663 103.663605,4.522063 Z M85.874425,16.3125235 C85.61735,12.8172135 83.67905,6.7120235 80.672865,1.8089435 C82.516525,0.9671935 84.49168,0.3643185 86.56284,0.0508235 C87.8332,3.3600385 89.509875,9.2076985 89.424335,15.3224435 C88.14715,15.3970635 86.942765,15.7414985 85.874425,16.3125235 Z" id="Roundel-Top" fill="#7FA7CD"></path>
                </g>
            </g>
        </g>
    </g>
</svg>